<svg width="40" height="40" xmlns="http://www.w3.org/2000/svg"><g fill="none" fill-rule="evenodd"><circle fill="#00BFE7" cx="20" cy="20" r="20"/><path d="M28.66 14.98a9.974 9.974 0 00-3.64-3.64C23.488 10.448 21.815 10 20 10c-1.814 0-3.487.447-5.02 1.34a9.997 9.997 0 00-3.64 3.64C10.448 16.513 10 18.186 10 20c0 1.814.447 3.487 1.34 5.02a9.99 9.99 0 003.64 3.64A9.812 9.812 0 0020 30c1.814 0 3.488-.447 5.02-1.34a9.974 9.974 0 003.64-3.64C29.552 23.487 30 21.814 30 20c0-1.814-.447-3.488-1.34-5.02zm-6.993 11.27c0 .12-.04.22-.117.3a.41.41 0 01-.3.116h-2.5c-.12 0-.22-.04-.3-.117a.416.416 0 01-.116-.3v-2.5a.41.41 0 01.117-.3.413.413 0 01.3-.117h2.5a.41.41 0 01.3.117.406.406 0 01.117.3v2.5zm3.17-7.695c-.108.32-.23.584-.364.788a3.038 3.038 0 01-.58.624c-.25.213-.45.365-.6.456-.146.09-.36.215-.636.37a2.2 2.2 0 00-.71.646c-.186.264-.28.478-.28.643a.41.41 0 01-.117.3.406.406 0 01-.3.117h-2.5c-.12 0-.22-.04-.3-.117a.41.41 0 01-.116-.3v-.47c0-.58.228-1.125.683-1.633.456-.508.958-.883 1.504-1.126.418-.19.713-.386.887-.586.174-.2.26-.465.26-.794 0-.287-.163-.543-.488-.77a1.925 1.925 0 00-1.114-.337c-.452 0-.825.104-1.12.312-.287.208-.66.607-1.12 1.197a.386.386 0 01-.326.157.368.368 0 01-.247-.078l-1.72-1.302c-.198-.157-.233-.34-.103-.547 1.11-1.85 2.722-2.774 4.83-2.774a4.95 4.95 0 012.215.534c.72.356 1.32.86 1.803 1.51.482.652.723 1.36.723 2.123 0 .382-.054.733-.162 1.055z" fill="#FFF"/></g></svg>